HIERARCHY
ROOT root
{
	OFFSET 0.000000 0.000000 0.000000
	CHANNELS 6 Xposition Yposition Zposition Zrotation Yrotation Xrotation
	JOINT lhip
	{
		OFFSET 0.058581 -0.082280 -0.017664
		CHANNELS 3 Zrotation Yrotation Xrotation
		JOINT lknee
		{
			OFFSET 0.043451 -0.386469 0.008037
			CHANNELS 3 Zrotation Yrotation Xrotation
			JOINT lankle
			{
				OFFSET -0.014790 -0.426874 -0.037428
				CHANNELS 3 Zrotation Yrotation Xrotation
				JOINT ltoe
				{
					OFFSET 0.041054 -0.060286 0.122042
					CHANNELS 3 Zrotation Yrotation Xrotation
					End Site
					{
						OFFSET 0.000000 0.000000 0.000000
					}
				}
			}
		}
	}
	JOINT rhip
	{
		OFFSET -0.060310 -0.090513 -0.013543
		CHANNELS 3 Zrotation Yrotation Xrotation
		JOINT rknee
		{
			OFFSET -0.043257 -0.383688 -0.004843
			CHANNELS 3 Zrotation Yrotation Xrotation
			JOINT rankle
			{
				OFFSET 0.019056 -0.420046 -0.034562
				CHANNELS 3 Zrotation Yrotation Xrotation
				JOINT rtoe
				{
					OFFSET -0.034840 -0.062106 0.130323
					CHANNELS 3 Zrotation Yrotation Xrotation
					End Site
					{
						OFFSET 0.000000 0.000000 0.000000
					}
				}
			}
		}
	}
	JOINT lowerback
	{
		OFFSET 0.004439 0.124404 -0.038385
		CHANNELS 3 Zrotation Yrotation Xrotation
		JOINT upperback
		{
			OFFSET 0.004488 0.137956 0.026820
			CHANNELS 3 Zrotation Yrotation Xrotation
			JOINT chest
			{
				OFFSET -0.002265 0.056032 0.002855
				CHANNELS 3 Zrotation Yrotation Xrotation
				JOINT lowerneck
				{
					OFFSET -0.013390 0.211636 -0.033468
					CHANNELS 3 Zrotation Yrotation Xrotation
					JOINT upperneck
					{
						OFFSET 0.010113 0.088937 0.050410
						CHANNELS 3 Zrotation Yrotation Xrotation
						End Site
						{
							OFFSET 0.000000 0.000000 0.000000
						}
					}
				}
				JOINT lclavicle
				{
					OFFSET 0.071702 0.114000 -0.018898
					CHANNELS 3 Zrotation Yrotation Xrotation
					JOINT lshoulder
					{
						OFFSET 0.122921 0.045205 -0.019046
						CHANNELS 3 Zrotation Yrotation Xrotation
						JOINT lelbow
						{
							OFFSET 0.255332 -0.015649 -0.022946
							CHANNELS 3 Zrotation Yrotation Xrotation
							JOINT lwrist
							{
								OFFSET 0.265709 0.012698 -0.007375
								CHANNELS 3 Zrotation Yrotation Xrotation
								End Site
								{
									OFFSET 0.000000 0.000000 0.000000
								}
							}
						}
					}
				}
				JOINT rclavicle
				{
					OFFSET -0.082954 0.112472 -0.023707
					CHANNELS 3 Zrotation Yrotation Xrotation
					JOINT rshoulder
					{
						OFFSET -0.113228 0.046853 -0.008472
						CHANNELS 3 Zrotation Yrotation Xrotation
						JOINT relbow
						{
							OFFSET -0.260127 -0.014369 -0.031269
							CHANNELS 3 Zrotation Yrotation Xrotation
							JOINT rwrist
							{
								OFFSET -0.269108 0.006794 -0.006027
								CHANNELS 3 Zrotation Yrotation Xrotation
								End Site
								{
									OFFSET 0.000000 0.000000 0.000000
								}
							}
						}
					}
				}
			}
		}
	}
}
MOTION
Frames: 11
Frame Time: 0.033333
1.422087 0.591509 0.977025 8.882638 4.423457 89.689586 10.419148 -0.612102 -0.445375 -1.831386 -0.046613 1.175363 6.046310 2.992981 -22.135887 0.000000 -0.000000 0.000000 -4.710494 0.476525 6.483744 4.684094 8.132951 -5.785182 4.727008 -10.653108 -6.735130 0.000000 -0.000000 0.000000 2.999794 4.194654 -8.139475 3.046723 -3.914890 6.012123 -3.566446 0.242331 -3.807286 9.536024 -0.219531 -11.055859 -3.336032 -4.713411 15.159219 -36.854631 -0.739514 10.829296 -50.602557 -0.936985 1.325386 8.751475 -28.257950 6.218460 7.926168 -24.068505 -4.591458 27.052243 6.035388 2.919753 -2.545212 18.553578 -22.980894 -130.116684 45.829576 -92.672487 -24.770922 50.714113 21.043348 
1.422057 0.591938 0.977155 8.866450 4.420448 89.597665 10.434610 -0.525567 -0.406422 -1.892911 0.118383 1.200220 6.067243 2.870490 -22.135997 0.000000 -0.000000 0.000000 -4.655917 0.589693 6.594496 4.591022 8.115082 -5.886832 4.642344 -10.718169 -6.680738 0.000000 -0.000000 0.000000 3.055202 4.158071 -7.642960 2.898216 -3.927827 5.660921 -3.516349 0.253031 -3.400574 9.802845 0.306710 -11.838814 -3.271273 -4.683919 15.239015 -36.693210 -1.010087 10.659155 -50.824882 -0.606170 1.256835 8.779711 -28.901018 6.142759 7.521271 -23.308900 -5.052662 26.852132 6.305383 2.157486 -0.782734 19.764544 -22.989427 -129.273892 43.023489 -93.286015 -26.660622 46.741353 16.801309 
1.422441 0.591787 0.977485 8.686800 4.247146 89.634750 10.171886 -0.135987 -0.498993 -1.877657 -0.055145 1.255347 5.973969 2.971163 -22.259642 0.000000 -0.000000 0.000000 -4.893804 0.404028 6.393219 4.675579 8.093432 -5.708196 4.784839 -10.449840 -6.703462 0.000000 -0.000000 0.000000 2.707196 4.270129 -7.419122 3.057213 -4.036795 5.365121 -3.504402 0.257739 -3.175922 9.944242 0.985123 -12.124847 -3.190261 -4.901434 15.008516 -36.676962 -1.299396 10.971545 -50.751726 -0.349913 1.665197 8.649562 -29.561593 6.552948 9.271447 -21.878632 -6.936063 27.691459 6.687020 2.039661 -0.605325 21.792142 -24.619539 -126.533675 40.631682 -94.263419 -30.987029 39.991262 7.875823 
1.422845 0.591580 0.977190 8.380035 4.159103 89.881106 10.004779 0.532413 -0.753439 -1.796014 -0.629327 1.297952 5.758137 3.095187 -22.266263 0.000000 -0.000000 0.000000 -5.049155 0.193234 5.909605 4.785481 7.937975 -5.462236 4.989566 -9.995721 -6.696921 0.000000 -0.000000 0.000000 2.286347 4.365520 -7.293357 3.332525 -4.074181 4.831234 -3.292273 0.208417 -3.130426 10.007247 1.451856 -11.525482 -3.028918 -5.044288 14.202283 -36.749634 -1.760308 11.590762 -50.805130 0.129294 2.734100 8.632013 -30.080720 7.089727 12.513732 -19.160036 -9.386633 28.296997 7.255568 2.488702 -0.121663 24.055714 -25.675590 -123.310383 37.774627 -98.294215 -39.770798 28.549756 -7.806045 
1.423163 0.591686 0.976743 8.189677 4.045582 90.051899 9.806495 0.793311 -0.861037 -1.718585 -1.046569 1.204484 5.654478 3.428193 -22.187932 0.000000 -0.000000 0.000000 -5.178287 0.336306 5.659673 4.795361 7.762194 -5.442324 5.027745 -9.879992 -6.670111 0.000000 -0.000000 0.000000 2.102341 4.393789 -7.187637 3.401194 -4.031242 4.370167 -3.174585 0.176040 -3.047750 9.869119 1.667475 -10.992927 -2.842961 -5.083113 13.603782 -36.843355 -2.053478 11.789042 -50.685410 0.575444 3.830130 8.350796 -30.311162 7.284556 14.874691 -17.139719 -10.702693 27.879308 7.273493 2.391673 1.430311 25.469855 -24.529127 -122.632447 35.866645 -102.778698 -45.303734 19.095180 -18.068520 
1.423482 0.592005 0.976190 8.009986 3.896423 90.142763 9.576547 1.100377 -0.875146 -1.653870 -1.463078 1.106167 5.540906 3.695205 -22.123271 0.000000 -0.000000 0.000000 -5.361213 0.452059 5.529027 4.804081 7.597036 -5.477279 5.042249 -9.699252 -6.611299 0.000000 -0.000000 0.000000 2.015592 4.385442 -6.958024 3.362750 -3.991944 3.969141 -3.070788 0.137334 -3.056487 9.601555 1.786223 -10.521647 -2.584367 -4.903172 13.132557 -37.126831 -2.527290 11.794179 -50.472075 1.286459 5.048704 8.167710 -30.433921 6.985354 16.778293 -15.093743 -10.992969 27.161424 7.396775 1.914706 3.783194 26.715558 -22.474487 -122.272869 33.462094 -108.182556 -47.945106 8.796158 -26.713124 
1.423597 0.592258 0.975966 7.994338 3.904691 90.124726 9.566954 1.105474 -0.787112 -1.637042 -1.437397 1.030683 5.594598 3.676632 -22.117835 0.000000 -0.000000 0.000000 -5.361282 0.384971 5.598185 4.799680 7.650109 -5.567378 4.948623 -9.660619 -6.592062 0.000000 -0.000000 0.000000 2.140127 4.298805 -6.720076 3.330762 -4.031191 3.832165 -2.989376 0.095088 -3.227928 9.280423 1.747963 -10.483682 -2.539255 -4.494194 13.397844 -37.285129 -2.839792 11.865194 -50.621022 1.595708 5.218150 8.134067 -30.244980 6.830789 16.176471 -15.221298 -10.338076 26.981248 7.689860 1.783728 4.943582 26.594722 -21.666769 -121.396095 33.537621 -107.945689 -45.888334 8.399582 -25.929622 
1.423754 0.592308 0.976148 8.079282 4.010988 90.093263 9.693536 0.821654 -0.725970 -1.667232 -1.089789 0.996443 5.772606 3.549351 -22.154268 0.000000 -0.000000 0.000000 -5.258816 0.269734 5.730993 4.801783 7.861014 -5.691141 4.842134 -9.836291 -6.604055 0.000000 -0.000000 0.000000 2.296917 4.199823 -6.624026 3.405463 -4.081301 3.866816 -2.877693 0.059680 -3.382880 9.015830 1.656568 -10.786601 -2.736482 -4.027923 14.130033 -37.217448 -2.820217 12.073743 -51.064802 1.270744 4.621348 8.001186 -29.879364 7.296822 14.144449 -16.988864 -9.315922 27.566483 7.691604 2.112418 4.216682 25.193934 -22.197185 -120.108268 36.684958 -102.832492 -41.906087 16.277623 -17.696612 
1.423886 0.592233 0.976457 8.188270 4.133285 90.064789 9.853808 0.546787 -0.709246 -1.708644 -0.670647 1.025212 5.910593 3.321091 -22.229589 0.000000 -0.000000 0.000000 -5.142972 0.111947 5.849881 4.797268 8.082522 -5.753388 4.812675 -9.993672 -6.626822 0.000000 -0.000000 0.000000 2.435528 4.142888 -6.692299 3.519592 -4.167896 4.156021 -2.802373 0.082854 -3.468158 8.915835 1.697916 -11.281290 -2.983880 -3.826648 14.724779 -37.057887 -2.690327 12.212486 -51.398469 0.695076 3.777548 7.700492 -29.647408 8.048527 12.148951 -19.176338 -7.764419 28.577987 7.480933 2.764002 1.864441 23.170142 -23.695223 -119.033420 40.524611 -96.656881 -38.147761 26.618304 -5.878407 
1.423810 0.592208 0.976769 8.357347 4.235051 89.984037 10.038245 0.179024 -0.643058 -1.800905 -0.125760 1.035947 6.103513 2.996352 -22.260526 0.000000 -0.000000 0.000000 -5.056076 0.034724 6.049661 4.808100 8.286166 -5.832839 4.788072 -10.231152 -6.638781 0.000000 -0.000000 0.000000 2.705454 4.065495 -6.878643 3.514251 -4.276796 4.838138 -2.899608 0.154460 -3.526443 8.870601 1.757339 -11.982046 -3.111758 -3.557109 15.099066 -36.903301 -2.476515 12.102752 -51.510133 0.078254 2.737943 7.561669 -29.654401 8.772377 9.476622 -21.757606 -5.770266 29.354668 7.255184 3.347587 -0.295087 20.996172 -24.926932 -119.380631 43.011697 -90.426051 -30.640396 38.516453 10.002379 
1.423519 0.592324 0.976976 8.508480 4.301167 89.909465 10.192648 -0.167588 -0.576810 -1.895075 0.338654 0.989517 6.307360 2.740527 -22.207016 0.000000 -0.000000 0.000000 -4.964338 0.151690 6.214433 4.792967 8.318717 -5.922611 4.675121 -10.437015 -6.622949 0.000000 -0.000000 0.000000 3.022220 3.971884 -6.988265 3.393778 -4.353418 5.369614 -3.108062 0.205822 -3.586032 8.903909 1.816742 -12.512393 -3.117941 -3.357286 15.410632 -36.816288 -2.198400 11.851918 -51.515418 -0.305882 1.822745 7.568142 -29.664086 9.026567 7.073572 -23.612746 -4.677311 29.263319 7.160209 3.418472 -0.296137 19.910283 -24.974774 -121.089801 43.134019 -86.593708 -22.139379 45.646179 22.443379 
